<svg width="66" height="131" viewBox="0 0 66 131" fill="none" xmlns="http://www.w3.org/2000/svg">
<g clip-path="url(#clip0_9_31)">
<path d="M52.29 127.44L51.29 127.73C39.037 131.41 25.9731 131.41 13.72 127.73L12.72 127.44C11.0746 126.944 9.63278 125.931 8.60797 124.551C7.58316 123.172 7.02988 121.499 7.03004 119.78V10.64C7.02392 9.89934 7.22353 9.17155 7.60667 8.53769C7.98981 7.90383 8.54143 7.3888 9.20004 7.04997L10.95 6.12997C17.5904 2.64698 24.9767 0.827393 32.475 0.827393C39.9734 0.827393 47.3597 2.64698 54 6.12997L55.76 7.04997C56.4168 7.39017 56.9663 7.90579 57.3477 8.53955C57.729 9.17331 57.9271 9.90038 57.92 10.64V119.77C57.9263 121.483 57.3827 123.152 56.3692 124.533C55.3557 125.914 53.9259 126.933 52.29 127.44Z" fill="#FFD70E"/>
<path d="M24.65 129.99C26.35 130.2 28.05 130.34 29.75 130.42V0.910156C28.0402 1.01504 26.3375 1.21535 24.65 1.51016V129.99Z" fill="white"/>
<path d="M35.3199 130.44C37.0199 130.36 38.73 130.22 40.42 130.01V1.51016C38.7325 1.21535 37.0298 1.01504 35.3199 0.910156V130.44Z" fill="white"/>
<path d="M12.7599 41.8002L7.58995 8.67017C7.39933 9.0073 7.26107 9.37146 7.17995 9.75017L7.06995 10.9902V119.77C7.07062 121.126 7.41605 122.46 8.07378 123.646C8.7315 124.832 9.67993 125.831 10.83 126.55L12.83 122.79L13.92 110.34L15.92 97.9602V63.1202L15.5999 59.1202L12.7599 41.8002Z" fill="#D1A900"/>
<path d="M10.88 48.3302L3.53005 51.1102C3.20897 51.2304 2.86735 51.2862 2.5247 51.2744C2.18206 51.2626 1.84509 51.1834 1.53307 51.0413C1.22104 50.8992 0.940065 50.697 0.706193 50.4463C0.472321 50.1956 0.290138 49.9013 0.170045 49.5802C0.0481793 49.2599 -0.00916096 48.9186 0.00134341 48.576C0.0118478 48.2334 0.0899847 47.8963 0.231248 47.5841C0.37251 47.2718 0.574124 46.9905 0.824479 46.7565C1.07483 46.5224 1.36898 46.3402 1.69003 46.2202L9.03005 43.4402L10.88 48.3302Z" fill="#D1A900"/>
<path d="M54.1899 48.3102L61.5399 51.0702C62.1898 51.3134 62.9095 51.2889 63.5413 51.002C64.1731 50.7152 64.6653 50.1895 64.9099 49.5402C65.0302 49.2191 65.086 48.8775 65.0742 48.5348C65.0624 48.1922 64.9831 47.8552 64.8411 47.5432C64.699 47.2312 64.4968 46.9502 64.2461 46.7163C63.9954 46.4825 63.7011 46.3003 63.3799 46.1802L56.0299 43.4402L54.1899 48.3102Z" fill="#FFD70E"/>
<path d="M49.09 63.1102L46.53 62.5002C37.4452 60.3156 27.9743 60.295 18.88 62.4402L15.98 63.1302C15.8348 63.171 15.6822 63.1785 15.5337 63.1521C15.3852 63.1256 15.2446 63.0659 15.1225 62.9774C15.0003 62.8889 14.8997 62.7739 14.8283 62.6411C14.7569 62.5082 14.7164 62.3609 14.71 62.2102L12.76 41.8002C12.7528 41.5731 12.8232 41.3503 12.9595 41.1685C13.0958 40.9868 13.29 40.8569 13.51 40.8002L20.28 39.3802C28.458 37.6353 36.912 37.6353 45.09 39.3802L51.53 40.7602C51.7482 40.8188 51.9401 40.9495 52.0744 41.1311C52.2088 41.3127 52.2778 41.5344 52.27 41.7602L50.34 62.1602C50.3373 62.3112 50.3003 62.4597 50.2319 62.5945C50.1636 62.7292 50.0656 62.8467 49.9453 62.9381C49.825 63.0296 49.6855 63.0925 49.5374 63.1223C49.3893 63.1521 49.2363 63.148 49.09 63.1102Z" fill="#3F4342"/>
<path d="M26.2 38.4402C24.2187 38.6535 22.2495 38.9672 20.3 39.3802L13.53 40.8002C13.31 40.8569 13.1159 40.9868 12.9795 41.1686C12.8432 41.3503 12.7729 41.5731 12.78 41.8002L14.76 62.2002C14.7665 62.3509 14.8069 62.4982 14.8783 62.6311C14.9497 62.7639 15.0503 62.8789 15.1725 62.9674C15.2946 63.0559 15.4352 63.1156 15.5838 63.1421C15.7323 63.1685 15.8848 63.1611 16.03 63.1202L18.93 62.4302C21.3415 61.8633 23.7864 61.4491 26.25 61.1902L26.2 38.4402Z" fill="#343434"/>
<path d="M13.53 44.31L20.3 42.88C28.4785 41.1399 36.9316 41.1399 45.11 42.88L51.55 44.26C51.7363 44.3043 51.9041 44.4057 52.03 44.55L52.29 41.76C52.2978 41.5342 52.2289 41.3125 52.0945 41.1309C51.9601 40.9493 51.7682 40.8186 51.55 40.76L45.11 39.44C36.9321 37.6951 28.478 37.6951 20.3 39.44L13.53 40.86C13.31 40.9167 13.1159 41.0466 12.9795 41.2284C12.8432 41.4101 12.7729 41.6329 12.78 41.86L13.04 44.65C13.165 44.4894 13.3359 44.3708 13.53 44.31Z" fill="#343434"/>
<path d="M51.11 110.34L43.94 111.44C36.3816 112.61 28.6883 112.61 21.13 111.44L13.97 110.33C13.8087 110.308 13.6628 110.223 13.5636 110.094C13.4645 109.965 13.42 109.802 13.44 109.64L14.76 98.5101C14.7697 98.4251 14.7965 98.343 14.839 98.2688C14.8814 98.1945 14.9385 98.1297 15.0068 98.0782C15.0751 98.0268 15.1532 97.9898 15.2362 97.9695C15.3193 97.9491 15.4056 97.9459 15.49 97.9601L20.28 98.7601C28.4236 100.12 36.7364 100.12 44.88 98.7601L49.66 97.9601C49.7443 97.9459 49.8307 97.9491 49.9137 97.9695C49.9968 97.9898 50.0748 98.0268 50.1431 98.0782C50.2114 98.1297 50.2685 98.1945 50.311 98.2688C50.3534 98.343 50.3803 98.4251 50.39 98.5101L51.68 109.65C51.694 109.817 51.6422 109.982 51.5356 110.111C51.4291 110.24 51.2763 110.322 51.11 110.34Z" fill="#3F4342"/>
<path d="M43.94 101.2L50.55 100.2L50.35 98.5301C50.3403 98.4451 50.3134 98.363 50.271 98.2888C50.2286 98.2145 50.1715 98.1497 50.1032 98.0983C50.0349 98.0468 49.9568 98.0098 49.8738 97.9895C49.7907 97.9692 49.7043 97.966 49.62 97.9801L44.84 98.7801C36.6964 100.14 28.3836 100.14 20.24 98.7801L15.45 97.9801C15.3657 97.966 15.2794 97.9692 15.1963 97.9895C15.1132 98.0098 15.0352 98.0468 14.9669 98.0983C14.8986 98.1497 14.8415 98.2145 14.799 98.2888C14.7566 98.363 14.7297 98.4451 14.72 98.5301L14.53 100.2L21.13 101.2C28.6883 102.37 36.3817 102.37 43.94 101.2Z" fill="#343434"/>
<path d="M25.85 99.44C23.98 99.27 22.1 99.04 20.24 98.73L15.45 97.93C15.3656 97.9159 15.2793 97.9191 15.1962 97.9394C15.1132 97.9597 15.0351 97.9968 14.9668 98.0482C14.8985 98.0997 14.8414 98.1645 14.799 98.2387C14.7565 98.313 14.7297 98.3951 14.72 98.48L13.44 109.62C13.42 109.782 13.4645 109.945 13.5636 110.074C13.6628 110.203 13.8087 110.288 13.97 110.31L21.13 111.42C22.7 111.66 24.27 111.84 25.85 111.98V99.44Z" fill="#343434"/>
<path d="M7.08995 119.77C7.08634 121.488 7.63574 123.161 8.65688 124.542C9.67801 125.924 11.1166 126.94 12.7599 127.44L13.4599 127.65C13.4586 126.067 13.0271 124.515 12.2116 123.159C11.396 121.802 10.2272 120.693 8.82996 119.95L7.06995 119.01L7.08995 119.77Z" fill="#E76957"/>
<path d="M57.98 119L56.22 119.94C54.8239 120.684 53.6565 121.793 52.8427 123.15C52.0288 124.506 51.5993 126.058 51.6 127.64L52.29 127.43C53.9354 126.934 55.3772 125.921 56.402 124.541C57.4269 123.162 57.9801 121.489 57.98 119.77V119Z" fill="#F9948A"/>
<path d="M51.1501 122.18L47.9301 123.01C37.8339 125.63 27.2362 125.63 17.14 123.01L13.92 122.18C13.7069 122.134 13.4843 122.172 13.2982 122.285C13.1121 122.399 12.9767 122.579 12.92 122.79L11.84 126.79C11.7915 127.003 11.8281 127.227 11.942 127.414C12.0559 127.601 12.2382 127.736 12.45 127.79L17.65 129.1C27.4492 131.55 37.7009 131.55 47.5 129.1L52.7 127.79C52.9119 127.736 53.0942 127.601 53.2081 127.414C53.322 127.227 53.3586 127.003 53.31 126.79L52.23 122.79C52.2025 122.677 52.1522 122.571 52.082 122.478C52.0119 122.386 51.9234 122.308 51.8222 122.251C51.721 122.194 51.6091 122.158 51.4935 122.146C51.3779 122.134 51.261 122.145 51.1501 122.18Z" fill="#3F4342"/>
<path d="M57.99 10.6301L52.29 41.8001L57.97 44.1601L57.99 10.6301Z" fill="#EBC300"/>
<path d="M10.48 57.69L12.81 63.69C13.2687 64.8692 13.4994 66.1248 13.49 67.39L13.34 91.18C13.334 92.2862 13.0462 93.3725 12.5038 94.3366C11.9614 95.3007 11.1823 96.1106 10.24 96.69C10.0669 96.7976 9.8677 96.8558 9.66391 96.8586C9.46013 96.8613 9.25946 96.8084 9.08353 96.7055C8.9076 96.6026 8.76309 96.4537 8.66555 96.2747C8.568 96.0958 8.52113 95.8936 8.52999 95.69L9.17998 57.92C9.17952 57.7622 9.23476 57.6093 9.33597 57.4883C9.43719 57.3672 9.57787 57.2858 9.73325 57.2583C9.88863 57.2308 10.0487 57.259 10.1853 57.338C10.3219 57.417 10.4263 57.5416 10.48 57.69Z" fill="#343434"/>
<path d="M54.59 57.6901L52.26 63.6901C51.8013 64.8693 51.5705 66.1248 51.58 67.3901L51.73 91.1801C51.738 92.287 52.0277 93.3736 52.5718 94.3376C53.1159 95.3016 53.8965 96.1112 54.84 96.6901C55.0123 96.7986 55.2111 96.8577 55.4147 96.8608C55.6184 96.8639 55.8189 96.8109 55.9945 96.7077C56.17 96.6044 56.3137 96.4549 56.4099 96.2754C56.5062 96.0959 56.5511 95.8934 56.54 95.6901L55.9 57.9201C55.8943 57.7645 55.8354 57.6156 55.7331 57.4982C55.6308 57.3808 55.4914 57.3021 55.338 57.2751C55.1847 57.2482 55.0267 57.2747 54.8906 57.3503C54.7544 57.4258 54.6483 57.5457 54.59 57.6901Z" fill="#343434"/>
<path d="M8.58996 6.61008C10.8299 5.13813 13.263 3.98381 15.82 3.18007C16.0213 3.12057 16.233 3.10458 16.4409 3.13317C16.6489 3.16175 16.8484 3.23425 17.0262 3.34585C17.204 3.45745 17.3561 3.6056 17.4722 3.78047C17.5884 3.95533 17.666 4.15291 17.7 4.36008L17.76 4.73008C17.7888 4.89886 17.7671 5.07239 17.6978 5.22892C17.6284 5.38546 17.5143 5.51805 17.37 5.61008L9.00996 10.9701C8.89747 11.0424 8.76983 11.0878 8.63696 11.1027C8.50409 11.1177 8.36955 11.1018 8.2438 11.0564C8.11805 11.0109 8.00448 10.9371 7.91189 10.8406C7.81931 10.7441 7.75021 10.6276 7.70996 10.5001L7.46997 9.78008C7.2832 9.20199 7.29165 8.57853 7.49403 8.00573C7.69641 7.43292 8.08149 6.94253 8.58996 6.61008Z" fill="#E76957"/>
<path d="M56.48 6.61001C54.2401 5.13806 51.8069 3.98374 49.25 3.18001C49.0487 3.12217 48.8375 3.10742 48.6301 3.13672C48.4227 3.16602 48.2238 3.23872 48.0464 3.35006C47.869 3.46141 47.7171 3.6089 47.6006 3.78293C47.484 3.95695 47.4054 4.15359 47.37 4.36001L47.31 4.73001C47.2812 4.8988 47.3029 5.07232 47.3722 5.22886C47.4416 5.3854 47.5556 5.51799 47.7 5.61001L56.06 10.97C56.1725 11.0423 56.3001 11.0877 56.433 11.1027C56.5659 11.1176 56.7004 11.1018 56.8262 11.0563C56.9519 11.0108 57.0655 10.937 57.1581 10.8405C57.2507 10.744 57.3198 10.6275 57.36 10.5L57.6 9.78001C57.7868 9.20193 57.7783 8.57847 57.5759 8.00566C57.3736 7.43286 56.9885 6.94247 56.48 6.61001Z" fill="#F9948A"/>
</g>
<defs>
<clipPath id="clip0_9_31">
<rect width="65.08" height="130.18" fill="white" transform="translate(0 0.820068)"/>
</clipPath>
</defs>
</svg>
