<svg width="66" height="121" viewBox="0 0 66 121" fill="none" xmlns="http://www.w3.org/2000/svg">
<g clip-path="url(#clip0_10_53)">
<path d="M8.23996 105.6C7.37005 105.6 6.53577 105.254 5.92065 104.639C5.30553 104.024 4.95996 103.19 4.95996 102.32V85.9299C4.95996 85.4997 5.04485 85.0736 5.20981 84.6763C5.37477 84.2789 5.61653 83.9179 5.92123 83.6142C6.22594 83.3104 6.58761 83.0697 6.9855 82.906C7.38339 82.7422 7.8097 82.6586 8.23996 82.6599C8.66975 82.6586 9.09556 82.7423 9.49289 82.9061C9.89022 83.07 10.2512 83.3109 10.5551 83.6148C10.8591 83.9187 11.0999 84.2797 11.2637 84.677C11.4276 85.0743 11.5113 85.5001 11.5099 85.9299V102.3C11.5139 102.732 11.4323 103.16 11.2697 103.561C11.1072 103.961 10.8669 104.325 10.5629 104.632C10.2588 104.938 9.89699 105.182 9.49829 105.348C9.09959 105.514 8.67192 105.6 8.23996 105.6Z" fill="#343434"/>
<path d="M56.8301 105.6C55.9619 105.597 55.1302 105.251 54.5172 104.636C53.9043 104.021 53.5601 103.188 53.5601 102.32V85.9299C53.5601 85.0627 53.9046 84.2309 54.5178 83.6177C55.1311 83.0044 55.9628 82.6599 56.8301 82.6599C57.2603 82.6586 57.6866 82.7422 58.0845 82.906C58.4824 83.0697 58.8441 83.3104 59.1488 83.6142C59.4535 83.9179 59.6952 84.2789 59.8602 84.6763C60.0252 85.0736 60.1101 85.4997 60.1101 85.9299V102.3C60.1127 102.732 60.0298 103.161 59.8661 103.561C59.7025 103.962 59.4613 104.325 59.1565 104.632C58.8517 104.939 58.4892 105.182 58.0899 105.348C57.6906 105.514 57.2625 105.6 56.8301 105.6Z" fill="#343434"/>
<path d="M19.9 0H45.18C49.3333 0 53.3165 1.64989 56.2533 4.58671C59.1901 7.52353 60.84 11.5067 60.84 15.66V49.89H4.23999V15.66C4.23999 11.5067 5.88988 7.52353 8.8267 4.58671C11.7635 1.64989 15.7467 0 19.9 0Z" fill="#961411"/>
<path d="M52.29 117.35L51.29 117.64C39.0377 121.315 25.9745 121.301 13.73 117.6L12.73 117.31C11.0863 116.814 9.6456 115.803 8.62094 114.425C7.59629 113.048 7.04202 111.377 7.04004 109.66V18.02C7.04004 13.9568 8.6541 10.0601 11.5272 7.18707C14.4002 4.31402 18.2969 2.69995 22.36 2.69995H42.61C46.6732 2.69995 50.5699 4.31402 53.4429 7.18707C56.316 10.0601 57.9301 13.9568 57.9301 18.02V109.7C57.9313 111.411 57.3843 113.076 56.3692 114.453C55.3542 115.83 53.9245 116.845 52.29 117.35Z" fill="#D33225"/>
<path d="M24.9199 119.95C26.8599 120.18 28.8199 120.32 30.7799 120.37V2.69995H24.9199V119.95Z" fill="#FFD70E"/>
<path d="M34.29 120.37C36.25 120.323 38.2067 120.183 40.16 119.95V2.69995H34.29V120.37Z" fill="#FFD70E"/>
<path d="M46.73 103.82H11.83L9.72998 115.6C10.5873 116.395 11.6127 116.986 12.73 117.33L13.73 117.62C25.9815 121.31 39.0484 121.31 51.3 117.62L52.3 117.33C52.77 117.187 53.2254 116.999 53.66 116.77L50.46 106.6C50.2166 105.799 49.7231 105.097 49.0519 104.597C48.3808 104.097 47.5671 103.824 46.73 103.82Z" fill="#961411"/>
<path d="M16.1699 104.6L14.7299 55.29L13.2199 36.36L7.54992 14.46C7.27043 15.6258 7.13276 16.8211 7.13991 18.02V109.7C7.18059 110.827 7.45286 111.933 7.93975 112.95C8.42664 113.966 9.1177 114.872 9.9699 115.61L14.1999 109.19L16.1699 104.6Z" fill="#961411"/>
<path d="M11.5501 109.93L7.09009 108.72V109.72C7.09207 111.437 7.64637 113.108 8.67102 114.485C9.69568 115.863 11.1363 116.874 12.7801 117.37L13.7801 117.66C15.6001 118.21 17.4501 118.66 19.3001 119.05L14.4701 112.05C13.7863 111.012 12.7485 110.259 11.5501 109.93Z" fill="#E76957"/>
<path d="M7.22998 111.18C7.50236 112.618 8.16381 113.953 9.14236 115.041C10.1209 116.129 11.3791 116.927 12.78 117.35L13.78 117.64C14.68 117.92 15.59 118.17 16.51 118.39C14.08 112.3 9.36998 111.3 7.22998 111.18Z" fill="#F9948A"/>
<path d="M53.52 109.93L57.98 108.72V109.72C57.978 111.437 57.4238 113.108 56.3991 114.485C55.3745 115.863 53.9338 116.874 52.29 117.37L51.29 117.66C49.47 118.21 47.62 118.66 45.77 119.05L50.6 112.05C51.2838 111.012 52.3217 110.259 53.52 109.93Z" fill="#E76957"/>
<path d="M57.8401 111.18C57.5677 112.618 56.9063 113.953 55.9277 115.041C54.9491 116.129 53.691 116.927 52.2901 117.35L51.2901 117.64C50.3901 117.92 49.4801 118.17 48.5601 118.39C50.9901 112.3 55.7301 111.3 57.8401 111.18Z" fill="#F9948A"/>
<path d="M49.9899 56.13L47.2899 55.48C37.7083 53.1798 27.7208 53.1592 18.1299 55.42L15.0699 56.14C14.9153 56.1769 14.7545 56.1793 14.5989 56.147C14.4433 56.1146 14.2967 56.0483 14.1697 55.9528C14.0427 55.8573 13.9383 55.7349 13.864 55.5944C13.7897 55.4539 13.7473 55.2987 13.7399 55.14L11.7399 33.6199C11.7201 33.3774 11.7893 33.1359 11.9348 32.9408C12.0802 32.7456 12.2918 32.6102 12.5299 32.5599L19.6699 31.05C28.2969 29.2313 37.21 29.2483 45.8299 31.1L52.6299 32.5599C52.8662 32.6123 53.0754 32.7486 53.2188 32.9436C53.3623 33.1385 53.4301 33.3788 53.4099 33.6199L51.4099 55.13C51.4039 55.2981 51.3592 55.4625 51.2791 55.6104C51.199 55.7583 51.0857 55.8857 50.9482 55.9825C50.8107 56.0794 50.6526 56.1431 50.4863 56.1687C50.3201 56.1942 50.1502 56.181 49.9899 56.13Z" fill="#3F4342"/>
<path d="M25.8501 30.1101C23.7614 30.3392 21.6854 30.6729 19.6301 31.1101L12.4901 32.6001C12.252 32.6504 12.0404 32.7858 11.895 32.9809C11.7495 33.1761 11.6803 33.4175 11.7001 33.6601L13.7001 55.1801C13.7075 55.3388 13.7499 55.494 13.8242 55.6345C13.8985 55.775 14.0029 55.8974 14.1299 55.9929C14.2569 56.0884 14.4035 56.1548 14.5591 56.1871C14.7147 56.2195 14.8755 56.217 15.0301 56.1801L18.0901 55.4601C20.6338 54.8617 23.2121 54.4209 25.8101 54.1401L25.8501 30.1101Z" fill="#343434"/>
<path d="M12.4901 36.3L19.6301 34.79C28.2571 32.9713 37.1702 32.9884 45.7901 34.84L52.5901 36.3C52.7829 36.3481 52.9569 36.4526 53.0901 36.6L53.3701 33.66C53.3904 33.4188 53.3225 33.1785 53.1791 32.9836C53.0356 32.7887 52.8264 32.6524 52.5901 32.6L45.7901 31.14C37.1702 29.2884 28.2571 29.2713 19.6301 31.09L12.4901 32.6C12.252 32.6503 12.0404 32.7857 11.895 32.9808C11.7495 33.176 11.6803 33.4174 11.7001 33.66L11.9801 36.6C12.1134 36.4477 12.2923 36.3425 12.4901 36.3Z" fill="#343434"/>
<path d="M9.22003 48.1199L11.54 54.1199C12.4258 56.401 12.8932 58.8231 12.92 61.2699L13.2 91.9499C13.2199 93.2786 12.9396 94.5947 12.38 95.7999L9.16003 102.8C9.14162 102.837 9.11141 102.868 9.07404 102.886C9.03667 102.905 8.99423 102.911 8.95328 102.903C8.91232 102.895 8.87511 102.873 8.84741 102.842C8.81972 102.811 8.80309 102.772 8.80005 102.73L8.86005 48.1499C8.86927 48.1109 8.89058 48.0758 8.92096 48.0497C8.95133 48.0235 8.9892 48.0076 9.02914 48.0043C9.06909 48.001 9.10909 48.0104 9.14337 48.0311C9.17766 48.0519 9.20447 48.083 9.22003 48.1199Z" fill="#343434"/>
<path d="M8.83008 78.9401L13.1001 80.4401L13.0901 78.8501L8.83008 77.3401V78.9401Z" fill="#961411"/>
<path d="M55.8501 48.1199L53.5301 54.1199C52.6444 56.401 52.1769 58.8231 52.1501 61.2699L51.8701 91.9499C51.8503 93.2786 52.1306 94.5947 52.6901 95.7999L55.9101 102.8C55.9285 102.837 55.9587 102.868 55.9961 102.886C56.0335 102.905 56.0759 102.911 56.1169 102.903C56.1578 102.895 56.195 102.873 56.2227 102.842C56.2504 102.811 56.2671 102.772 56.2701 102.73L56.2101 48.1499C56.2009 48.1109 56.1796 48.0758 56.1492 48.0497C56.1188 48.0235 56.0809 48.0076 56.041 48.0043C56.001 48.001 55.9611 48.0104 55.9268 48.0311C55.8925 48.0519 55.8657 48.083 55.8501 48.1199Z" fill="#3F4342"/>
<path d="M51.98 80.4401L56.24 78.9401V77.3401L51.99 78.8501L51.98 80.4401Z" fill="#D33225"/>
<path d="M10.2901 50.88L3.53009 53.45C3.20976 53.5719 2.86851 53.6292 2.52594 53.6187C2.18337 53.6082 1.84626 53.5301 1.534 53.3888C1.22173 53.2476 0.940459 53.0459 0.706393 52.7956C0.472326 52.5452 0.290075 52.2511 0.170107 51.93C-0.0619226 51.2814 -0.0281523 50.5674 0.264071 49.9437C0.556294 49.3199 1.08327 48.8369 1.7301 48.6L8.4801 46.03L10.2901 50.88Z" fill="#961411"/>
<path d="M54.73 50.94L61.52 53.41C62.1698 53.6532 62.8896 53.6287 63.5214 53.3419C64.1531 53.055 64.6453 52.5293 64.89 51.88C65.0102 51.559 65.066 51.2173 65.0542 50.8747C65.0424 50.532 64.9632 50.1951 64.8211 49.8831C64.679 49.571 64.4768 49.2901 64.2261 49.0562C63.9754 48.8223 63.6811 48.6401 63.36 48.5201L56.57 46.05L54.73 50.94Z" fill="#D33225"/>
<path d="M46.7299 108.06L32.7299 107.52H32.6499L18.6499 108.06C18.4188 108.066 18.1959 108.148 18.0154 108.292C17.8349 108.436 17.7065 108.636 17.6499 108.86L17.1799 110.86C17.1353 111.012 17.1276 111.173 17.1575 111.329C17.1874 111.485 17.2539 111.631 17.3516 111.756C17.4493 111.882 17.5754 111.982 17.7195 112.048C17.8635 112.115 18.0213 112.146 18.1799 112.14H47.1199C47.2785 112.146 47.4363 112.115 47.5803 112.048C47.7243 111.982 47.8504 111.882 47.9482 111.756C48.0459 111.631 48.1124 111.485 48.1423 111.329C48.1721 111.173 48.1645 111.012 48.1199 110.86L47.6399 108.86C47.5967 108.645 47.4842 108.451 47.3199 108.306C47.1555 108.162 46.9482 108.075 46.7299 108.06Z" fill="#343434"/>
<path d="M7.1499 16.78H11.7299C11.7299 16.78 12.7299 7.23001 21.0599 7.23001V2.77002C17.461 3.08853 14.0906 4.66953 11.545 7.23343C8.99944 9.79733 7.44262 13.1789 7.1499 16.78Z" fill="#FFD70E"/>
<path d="M57.9801 16.78H53.4201C53.4201 16.78 52.4201 7.23001 44.0801 7.23001V2.77002C47.6786 3.08689 51.0488 4.66766 53.5931 7.23212C56.1374 9.79658 57.6916 13.1791 57.9801 16.78Z" fill="#FFD70E"/>
</g>
<defs>
<clipPath id="clip0_10_53">
<rect width="65.08" height="120.4" fill="white"/>
</clipPath>
</defs>
</svg>
